<?xml version="1.0" encoding="utf-8"?>
<!-- Generator: Adobe Illustrator 24.3.0, SVG Export Plug-In . SVG Version: 6.00 Build 0)  -->
<svg version="1.1" id="Layer_1" xmlns="http://www.w3.org/2000/svg" xmlns:xlink="http://www.w3.org/1999/xlink" x="0px" y="0px"
	 viewBox="0 0 80 80" enable-background="new 0 0 80 80" xml:space="preserve">
<g>
	<path fill="#79CCB8" d="M63.938,43.575C63.975,42.807,64,41.952,64,40.928c0-7.602-3.96-14.267-9.919-18.085
		c2.875-1.743,2.604-5.253,2.604-5.253c-3.59,2.839-7.052,2.629-10.204,2.236c-0.874-0.162-1.768-0.261-2.675-0.315
		c-0.437-0.038-0.867-0.065-1.287-0.065c-11.864,0-21.482,9.618-21.482,21.481c0,1.725,0.225,3.394,0.609,5
		C29.711,40.31,43.365,35.725,63.938,43.575z"/>
	<path fill="#3DAA9D" d="M63.938,43.575c-20.573-7.851-34.228-3.266-42.293,2.353c2.256,9.448,10.733,16.482,20.873,16.482
		c7.622,0,14.301-3.982,18.114-9.967c2.202,1.547,3.049,3.389,3.049,3.389C63.212,48.889,63.75,47.52,63.938,43.575z"/>
	<path fill="#E2E2E2" d="M52.077,28.758c0,3.03-2.457,5.486-5.486,5.486c-3.03,0-5.486-2.456-5.486-5.486
		c0-3.029,2.456-5.486,5.486-5.486C49.62,23.272,52.077,25.729,52.077,28.758z"/>
	<path fill="#525C6B" d="M47.587,28.758c0,1.102-0.893,1.996-1.995,1.996c-1.102,0-1.995-0.894-1.995-1.996
		c0-1.102,0.893-1.994,1.995-1.994C46.694,26.764,47.587,27.656,47.587,28.758z"/>
	<path fill="#F1BB6B" d="M20.021,55.01C17.537,52.522,16,49.086,16,45.291c0-7.596,6.158-13.754,13.754-13.754
		c7.275,0,13.232,5.65,13.721,12.801C27.008,42.704,20.021,55.01,20.021,55.01z"/>
	<path fill="#E49A61" d="M22.147,52.201c3.171-3.525,10.01-8.986,21.328-7.863c0.021,0.315,0.033,0.633,0.033,0.953
		c0,2.727-0.784,5.273-2.152,7.41c-0.543,0.771-1.188,1.488-1.939,2.133C32.829,60.496,24.875,56.363,22.147,52.201z"/>
</g>
</svg>
